<?xml version="1.0" standalone="no"?>
<!DOCTYPE svg PUBLIC "-//W3C//DTD SVG 20010904//EN"
 "http://www.w3.org/TR/2001/REC-SVG-20010904/DTD/svg10.dtd">
<svg version="1.0" xmlns="http://www.w3.org/2000/svg"
 width="1000.000000pt" height="456.000000pt" viewBox="0 0 1000.000000 456.000000"
 preserveAspectRatio="xMidYMid meet">
<metadata>
Created by potrace 1.16, written by Peter Selinger 2001-2019
</metadata>
<g transform="translate(0.000000,456.000000) scale(0.100000,-0.100000)"
fill="#000000" stroke="none">
<path d="M2015 3751 c-60 -15 -121 -55 -186 -120 -187 -187 -238 -383 -174
-671 15 -69 53 -217 85 -330 81 -292 100 -369 131 -551 25 -153 38 -254 47
-384 l7 -100 35 -3 c64 -4 65 -1 47 160 -29 249 -48 528 -45 668 l3 135 27 13
c47 22 104 -12 226 -135 122 -123 160 -185 321 -525 108 -227 171 -320 242
-355 25 -12 85 -29 134 -38 300 -52 650 38 970 251 55 36 121 77 146 89 133
68 342 277 542 542 74 98 280 402 306 451 7 13 15 22 17 19 8 -8 -79 -303
-183 -622 -82 -254 -95 -323 -69 -374 19 -36 67 -61 116 -61 45 0 66 15 74 51
3 18 25 68 47 113 74 145 459 748 459 718 0 -18 -73 -225 -161 -457 -62 -163
-72 -200 -73 -257 -1 -61 2 -69 29 -99 36 -38 82 -59 128 -59 47 0 61 21 64
96 5 115 88 398 229 778 41 109 74 214 74 232 0 38 -45 96 -114 146 -54 39
-71 37 -83 -10 -10 -39 -157 -289 -316 -537 -117 -181 -161 -245 -154 -220 4
11 10 38 15 60 12 51 44 157 127 419 39 125 63 216 59 228 -15 49 -141 158
-182 158 -10 0 -24 -11 -30 -24 -16 -35 -267 -396 -383 -551 -181 -241 -344
-427 -457 -521 l-63 -52 -132 55 c-305 126 -442 162 -740 193 -171 17 -251 59
-321 164 -19 29 -66 125 -104 212 -294 674 -471 996 -597 1081 -38 26 -96 35
-140 24z m146 -80 c84 -74 204 -262 339 -530 68 -137 195 -411 245 -531 78
-186 147 -281 242 -333 54 -29 117 -42 278 -57 159 -15 180 -19 204 -41 62
-58 -8 -168 -152 -239 -58 -29 -74 -32 -130 -28 -92 6 -163 44 -261 142 -154
153 -284 388 -419 761 -82 224 -111 295 -192 461 -72 151 -167 321 -212 380
-48 65 -10 75 58 15z"/>
<path d="M1313 3662 c-145 -59 -231 -233 -204 -409 6 -37 20 -95 31 -127 11
-33 19 -61 17 -62 -2 -2 -26 23 -54 54 -190 216 -474 236 -598 42 -129 -203
24 -456 320 -526 115 -27 116 -28 19 -52 -127 -31 -207 -74 -280 -148 -79 -80
-108 -149 -101 -244 7 -106 64 -194 154 -240 41 -21 62 -25 144 -25 90 0 99 2
172 38 47 23 99 60 132 92 59 58 60 57 44 -29 -13 -72 2 -179 36 -253 100
-219 391 -237 521 -32 42 67 77 258 46 251 -8 -1 -52 -11 -98 -22 -47 -11
-120 -20 -165 -20 -134 0 -189 44 -189 154 0 60 -14 95 -55 133 -40 37 -43 55
-15 83 l21 21 -21 26 c-27 35 -25 56 10 96 17 19 30 40 30 46 0 6 -15 25 -32
40 -18 16 -52 46 -75 66 -24 21 -43 44 -43 51 0 8 46 60 103 116 57 57 118
120 135 141 31 37 33 37 60 23 40 -21 120 -30 188 -21 68 8 58 16 -41 35 -86
16 -130 37 -177 85 -38 39 -86 130 -75 142 4 3 8 4 10 2 34 -50 92 -119 98
-119 5 0 9 44 9 99 0 54 4 123 10 152 15 80 72 188 133 252 l54 56 -59 25
c-71 31 -151 34 -215 8z"/>
<path d="M8435 3122 c-160 -56 -262 -199 -385 -542 -29 -80 -63 -174 -77 -210
-13 -36 -37 -101 -54 -145 -16 -44 -46 -111 -67 -150 l-38 -70 -75 -6 c-114
-8 -149 -29 -149 -90 0 -54 8 -67 51 -89 52 -27 137 -27 191 1 67 34 137 15
448 -123 216 -96 269 -112 370 -112 120 1 192 39 206 112 8 40 -10 42 -62 7
-45 -30 -90 -39 -161 -32 -63 7 -127 37 -332 160 -79 48 -173 96 -207 107 -35
12 -64 24 -64 26 0 3 11 20 24 37 45 60 114 213 174 387 155 445 258 620 367
620 14 0 28 -6 31 -14 3 -7 -14 -60 -37 -117 -53 -132 -79 -216 -79 -254 0
-42 34 -110 64 -130 43 -28 60 -17 68 45 5 30 25 123 45 205 57 230 49 327
-30 375 -41 26 -152 26 -222 2z"/>
<path d="M9166 2588 c-15 -64 -75 -226 -103 -278 -94 -173 -278 -379 -360
-405 -46 -13 -28 47 111 367 42 98 76 189 76 202 0 45 -115 130 -148 109 -8
-5 -21 -31 -28 -58 -16 -63 -40 -125 -97 -246 -70 -151 -117 -273 -117 -308 0
-79 86 -161 169 -161 48 0 126 48 195 120 38 39 69 70 70 70 2 0 1 -22 -2 -49
-5 -61 7 -85 66 -122 89 -57 150 -33 287 112 82 87 265 338 265 363 0 21 -11
46 -20 46 -5 0 -57 -68 -117 -152 -158 -222 -298 -360 -285 -282 2 10 41 120
87 244 95 258 115 315 115 335 0 20 -48 73 -81 90 -34 18 -79 19 -83 3z"/>
<path d="M5825 2581 c-29 -13 -96 -86 -143 -156 -86 -128 -192 -371 -192 -440
0 -73 105 -161 204 -172 42 -5 46 -3 98 48 30 30 67 70 81 89 l27 35 -6 -41
c-5 -36 -2 -45 24 -75 32 -37 93 -59 160 -59 46 0 108 37 175 107 45 47 48 53
41 88 l-7 37 -69 -71 c-67 -67 -108 -89 -108 -56 0 8 38 117 84 242 110 300
109 298 97 321 -15 29 -78 81 -106 88 -38 10 -49 1 -69 -60 l-19 -56 -49 46
c-72 67 -174 106 -223 85z m214 -162 c17 -6 31 -15 31 -21 0 -40 -218 -372
-296 -450 -77 -78 -87 -61 -45 70 37 112 107 255 167 339 55 77 75 86 143 62z"/>
<path d="M3104 1431 c-49 -30 -102 -117 -139 -229 -12 -39 -20 -51 -28 -43
-17 17 -80 13 -107 -6 -43 -30 -69 -66 -114 -153 -47 -91 -86 -136 -110 -127
-16 6 -15 13 21 135 31 104 28 146 -8 150 -33 4 -76 -32 -119 -98 -18 -28 -33
-50 -35 -50 -1 0 3 25 11 56 13 59 10 84 -11 84 -20 0 -41 -31 -59 -87 -26
-80 -85 -157 -144 -187 -63 -33 -92 -16 -92 55 l0 46 38 0 c72 0 127 47 139
118 6 40 -23 75 -63 75 -71 0 -133 -61 -173 -170 -27 -73 -94 -151 -114 -131
-9 9 -3 39 32 140 43 125 47 161 18 161 -22 0 -42 -28 -97 -138 -58 -116 -93
-162 -122 -162 -25 0 -21 22 28 165 19 56 34 104 34 109 0 4 -12 6 -27 4 -30
-3 -30 -3 -109 -171 -37 -79 -65 -110 -90 -100 -21 8 -17 50 16 143 37 104 39
133 8 128 -16 -2 -34 -23 -61 -73 -34 -64 -101 -145 -118 -145 -4 0 2 32 12
72 24 90 25 144 3 152 -9 4 -23 1 -32 -6 -12 -11 -17 -9 -30 10 -28 43 -110
18 -166 -52 -19 -22 -47 -70 -63 -106 -36 -78 -77 -130 -105 -130 -17 0 -19 4
-13 33 4 17 21 70 37 117 37 103 43 136 29 144 -22 14 -53 -18 -92 -96 -39
-80 -102 -168 -119 -168 -5 0 -4 15 1 32 14 51 13 54 -46 118 -63 68 -69 97
-32 150 28 43 72 59 95 36 15 -15 15 -20 0 -63 -9 -26 -15 -49 -13 -52 10 -9
45 34 61 74 13 35 14 47 3 66 -16 32 -28 39 -67 39 -78 0 -165 -80 -177 -165
-8 -53 7 -85 69 -143 55 -51 59 -80 17 -123 -51 -50 -99 -31 -87 35 8 39 -4
52 -34 36 -30 -16 -28 -91 3 -121 46 -44 162 -4 250 87 l42 43 -3 -45 c-7 -83
48 -101 118 -38 22 20 40 32 40 26 0 -20 31 -42 58 -42 38 0 77 29 124 91 40
54 41 54 34 19 -17 -84 -24 -95 -89 -132 -34 -20 -77 -51 -95 -68 -64 -62 -91
-150 -55 -185 22 -23 91 -15 131 14 42 29 107 131 138 216 20 53 37 80 73 112
25 23 49 42 54 43 4 0 7 -22 7 -50 0 -40 4 -52 23 -64 30 -20 69 -10 103 25
l28 29 10 -32 c9 -28 17 -34 45 -36 29 -3 40 3 82 47 l49 51 0 -38 c0 -75 56
-85 124 -22 l44 41 7 -31 c19 -89 144 -77 230 22 l38 43 -6 -46 c-7 -49 8 -85
30 -71 6 4 37 56 68 117 57 112 99 175 116 175 15 0 10 -27 -21 -117 -32 -90
-36 -123 -20 -154 20 -36 87 -19 131 35 15 19 16 18 27 -12 21 -61 74 -54 145
19 26 27 48 49 50 49 1 0 1 -20 -1 -45 -6 -65 4 -94 33 -101 32 -8 66 14 104
67 26 36 30 38 36 19 11 -36 34 -50 82 -50 55 0 101 30 134 90 13 23 30 40 40
40 38 0 124 100 99 115 -6 3 -14 -5 -19 -18 -9 -24 -65 -77 -82 -77 -11 0 -12
-4 6 53 25 83 -2 137 -68 137 -72 0 -147 -71 -187 -177 -20 -54 -70 -136 -91
-149 -26 -16 -29 16 -8 104 16 73 28 101 56 135 105 125 173 245 173 305 0 63
-36 79 -96 43z m-1654 -326 c0 -50 -122 -213 -152 -203 -58 20 56 218 125 218
18 0 27 -5 27 -15z m1840 -11 c14 -36 13 -40 -15 -70 -26 -28 -32 -49 -15 -59
13 -8 0 -32 -36 -68 -34 -34 -72 -33 -93 3 -33 59 55 220 120 220 22 0 32 -6
39 -26z m-360 3 c0 -7 -7 -33 -15 -58 -17 -50 -116 -164 -137 -157 -40 13 0
136 63 193 39 35 89 47 89 22z m-1540 -272 c0 -16 -56 -135 -79 -167 -32 -46
-74 -66 -97 -47 -34 28 17 118 103 178 56 39 73 47 73 36z"/>
<path d="M3634 1266 c-11 -8 -29 -33 -39 -55 -12 -27 -25 -41 -37 -41 -19 0
-25 -26 -7 -32 7 -2 3 -31 -11 -87 -26 -102 -30 -181 -11 -204 24 -30 67 -21
111 24 22 23 40 45 40 50 0 5 5 9 10 9 6 0 10 -15 10 -34 0 -65 70 -81 124
-27 l30 31 11 -33 c8 -26 16 -33 40 -35 44 -4 91 33 136 106 20 35 41 64 44
65 4 1 16 -19 26 -45 l18 -46 -24 -16 c-55 -36 -68 -96 -21 -96 32 0 66 28 86
71 11 26 36 52 71 77 32 23 64 55 78 81 28 51 13 52 -21 1 -24 -35 -81 -80
-102 -80 -6 0 -20 30 -30 66 -18 62 -18 68 -2 101 23 48 52 42 49 -10 -3 -47
12 -48 34 -2 24 50 9 89 -34 93 -64 6 -118 -47 -137 -135 -8 -35 -66 -136 -98
-170 -12 -13 -30 -23 -41 -23 -23 0 -19 24 29 164 19 55 34 104 34 108 0 5
-12 8 -27 6 -29 -3 -41 -21 -107 -167 -31 -70 -69 -113 -92 -104 -21 8 -17 49
16 143 35 99 38 130 11 130 -25 0 -33 -12 -85 -117 -67 -136 -136 -205 -136
-135 0 15 16 75 37 135 35 102 39 107 65 107 18 0 28 5 28 15 0 8 -8 15 -19
15 -16 0 -19 7 -17 51 1 56 -8 67 -40 45z"/>
<path d="M5200 1183 c-36 -25 -48 -42 -64 -96 -23 -73 -75 -164 -115 -199
l-36 -32 -3 35 c-2 21 11 73 33 133 20 55 34 105 31 113 -6 16 -38 17 -53 2
-8 -8 -14 -5 -22 10 -8 14 -21 21 -42 21 -57 0 -103 -36 -163 -126 -31 -47
-81 -92 -91 -82 -3 3 2 22 10 42 10 23 15 59 13 89 -3 49 -5 52 -32 55 -23 3
-38 -6 -83 -53 -38 -40 -53 -50 -47 -33 12 38 24 92 24 111 0 13 -6 18 -22 15
-43 -6 -102 -147 -163 -388 -31 -121 -44 -240 -27 -240 20 0 40 42 71 155 52
183 173 403 210 381 30 -19 -23 -158 -70 -184 -84 -45 -119 -102 -63 -102 35
0 61 15 114 65 25 23 63 52 84 65 l39 23 -7 -37 c-9 -45 13 -86 46 -86 31 0
86 37 113 78 l25 37 0 -43 c0 -79 33 -101 99 -67 30 15 111 126 111 151 0 25
19 15 33 -18 27 -60 27 -66 2 -82 -55 -36 -68 -96 -21 -96 33 0 66 28 86 72
15 34 61 78 81 78 4 0 9 -17 12 -37 10 -62 31 -83 83 -83 62 0 96 20 134 80
20 30 39 50 51 50 10 0 34 13 52 30 l35 30 21 -51 22 -51 -41 -38 c-36 -33
-40 -41 -30 -59 6 -12 20 -21 31 -21 27 0 89 62 89 88 0 13 14 29 38 43 50 30
91 68 109 102 24 47 8 55 -20 10 -28 -44 -85 -93 -108 -93 -21 0 -50 126 -37
159 10 28 25 41 47 41 10 0 12 -10 8 -40 -3 -22 -1 -40 3 -40 17 0 40 45 40
75 0 40 -16 55 -57 55 -48 0 -99 -49 -118 -115 -15 -52 -43 -86 -79 -99 -15
-5 -17 -3 -11 16 3 13 9 46 12 74 5 47 3 53 -22 72 -32 25 -62 28 -109 8 -34
-14 -92 -78 -120 -134 -25 -49 -106 -93 -106 -58 0 7 -7 37 -17 65 -15 48 -15
54 1 87 23 48 51 43 50 -9 -2 -47 11 -47 33 -2 25 52 10 89 -37 93 -21 2 -45
-4 -60 -15z m-240 -92 c0 -24 -95 -167 -124 -186 -72 -47 -54 70 25 159 47 54
99 69 99 27z m578 17 c20 -20 15 -72 -9 -86 -17 -11 -20 -20 -16 -49 5 -31 2
-40 -27 -69 -88 -88 -139 3 -75 131 37 73 94 106 127 73z"/>
</g>
</svg>
